# AST/ASF file generated using VICON BodyLanguage
# -----------------------------------------------
:version 1.10
:name VICON
:units
  mass 1.0
  length 0.45
  angle deg
:documentation
   .ast/.asf automatically generated from VICON data using
   VICON BodyBuilder and BodyLanguage model FoxedUp or BRILLIANT.MOD
:root
   order TX TY TZ RX RY RZ
   axis XYZ
   position 0 0 0  
   orientation 0 0 0 
:bonedata
  begin
     id 1 
     name lhipjoint
     direction 0.567725 -0.736092 0.368589 
     length 2.42353 
     axis 0 0 0  XYZ
  end
  begin
     id 2 
     name lfemur
     direction 0.34202 -0.939693 0  
     length 7.24894  
     axis 0 0 20  XYZ
    dof rx ry rz
    limits (-160.0 20.0)
           (-70.0 70.0)
           (-60.0 70.0)
  end
  begin
     id 3 
     name ltibia
     direction 0.34202 -0.939693 0   
     length 7.6997   
     axis 0 0 20   XYZ
    dof rx
    limits (-10.0 170.0)
  end
  begin
     id 4 
     name lfoot
     direction 0.100767 -0.276854 0.955614   
     length 2.37556   
     axis -90 7.62852e-016 20   XYZ
    dof rx rz
    limits (-45.0 90.0)
           (-70.0 20.0)
  end
  begin
     id 5 
     name ltoes
     direction 1.53592e-011 -4.21894e-011 1   
     length 1.18363   
     axis -90 7.62852e-016 20   XYZ
    dof rx
    limits (-90.0 20.0)
  end
  begin
     id 6 
     name rhipjoint
     direction -0.556459 -0.742938 0.372017   
     length 2.4012  
     axis 0 0 0  XYZ 
  end
  begin
     id 7 
     name rfemur
     direction -0.34202 -0.939693 0   
     length 7.5119   
     axis 0 0 -20   XYZ
    dof rx ry rz
    limits (-160.0 20.0)
           (-70.0 70.0)
           (-70.0 60.0)
  end
  begin
     id 8 
     name rtibia
     direction -0.34202 -0.939693 0   
     length 7.50155   
     axis 0 0 -20   XYZ
    dof rx
    limits (-10.0 170.0)
 end
 begin
     id 9 
     name rfoot
     direction -0.118427 -0.325376 0.938139   
     length 2.32487  
     axis -90 -7.62852e-016 -20   XYZ
    dof rx rz
    limits (-45.0 90.0)
           (-20.0 70.0)
  end
  begin
     id 10 
     name rtoes
     direction -1.53525e-011 -4.21868e-011 1   
     length 1.15233   
     axis -90 -7.62852e-016 -20   XYZ
    dof rx
    limits (-90.0 20.0)
  end
  begin
     id 11 
     name lowerback
     direction 0.0287568 0.999577 -0.00434502   
     length 2.15243   
     axis 0 0 0   XYZ
    dof rx ry rz
    limits (-20.0 45.0)
           (-30.0 30.0)
           (-30.0 30.0)
  end
  begin
     id 12 
     name upperback
     direction 0.0294009 0.99956 0.00404628   
     length 2.15427   
     axis 0 0 0   XYZ
    dof rx ry rz
    limits (-20.0 45.0)
           (-30.0 30.0)
           (-30.0 30.0)
  end
  begin
     id 13 
     name thorax
     direction 0.0151014 0.999868 0.0059419   
     length 2.14898   
     axis 0 0 0   XYZ
    dof rx ry rz
    limits (-20.0 45.0)
           (-30.0 30.0)
           (-30.0 30.0)
  end
  begin
     id 14 
     name lowerneck
     direction -0.0249197 0.989906 0.139515   
     length 1.6861   
     axis 0 0 0   XYZ
    dof rx ry rz
    limits (-20.0 45.0)
           (-30.0 30.0)
           (-30.0 30.0)
  end
  begin
     id 15 
     name upperneck
     direction 0.0438463 0.988795 -0.142693   
     length 1.71276   
     axis 0 0 0   XYZ
    dof rx ry rz
    limits (-20.0 45.0)
           (-30.0 30.0)
           (-30.0 30.0)
  end
  begin
     id 16
     name head
     direction 0.0148499 0.997845 -0.0639186  
     length 1.7209  
     axis 0 0 0   XYZ
    dof rx ry rz
    limits (-20.0 45.0)
           (-30.0 30.0)
           (-30.0 30.0)
  end
  begin
     id 17 
     name lclavicle
     direction 0.940298 0.323464 -0.105876  
     length 3.9048  
     axis 0 0 0   XYZ
    dof ry rz
    limits (-20.0 10.0)
           (0.0 20.0)
  end
  begin
     id 18 
     name lhumerus
     direction 1 -4.48954e-011 -4.9675e-028   
     length 4.6851   
     axis 180 -30 -90   XYZ
    dof rx ry rz
    limits (-60.0 90.0)
           (-90.0 90.0)
           (-90.0 90.0)
  end
  begin
     id 19
     name lradius
     direction 1 -4.48992e-011 -1.03359e-026   
     length 3.39626   
     axis 180 -30 -90   XYZ
    dof rx
    limits (-10.0 170.0)
  end
  begin
     id 20
     name lwrist
     direction 1 -4.48906e-011 -1.67336e-026   
     length 1.69813   
     axis 9.90442e-015 90 90   XYZ
    dof ry
    limits (-180.0 0.0)
 end
  begin
     id 21 
     name lhand
     direction 1 -4.49006e-011 -3.34673e-026   
     length 0.486078   
     axis 2.1355e-014 90 90   XYZ
    dof rx rz
    limits (-90.0 90.0)
           (-45.0 45.0)
  end
  begin
     id 22 
     name lfingers
     direction 1 -4.48992e-011 -6.69345e-026   
     length 0.391889   
     axis 4.27099e-014 90 90   XYZ
    dof rx
    limits (0.0 90.0)
  end
  begin
     id 23
     name lthumb
     direction 0.707107 -6.34926e-011 0.707107   
     length 0.562676   
     axis -90 45 2.85299e-015   XYZ
    dof rx rz
    limits (-45.0 45.0)
           (-45.0 45.0)
  end
  begin
     id 24 
     name rclavicle
     direction -0.882459 0.414895 -0.221648   
     length 3.44646  
     axis 0 0 0   XYZ 
    dof ry rz
    limits (-10.0 20.0)
           (-20.0 0.0)
  end
  begin
     id 25 
     name rhumerus
     direction -1 -4.48962e-011 -2.37984e-027  
     length 5.55576   
     axis 180 30 90   XYZ
    dof rx ry rz
    limits (-90.0 60.0)
           (-90.0 90.0)
           (-90.0 90.0)
  end
  begin
     id 26 
     name rradius
     direction -1 -4.48982e-011 -6.86791e-027   
     length 3.32774   
     axis 180 30 90   XYZ
    dof rx
    limits (-10.0 170.0)
  end
  begin
     id 27 
     name rwrist
     direction -1 -4.48961e-011 -1.67336e-026   
     length 1.66387   
     axis 9.90442e-015 -90 -90   XYZ
    dof ry
    limits (-180.0 0.0)
  end
  begin
     id 28
     name rhand
     direction -1 -4.4897e-011 -3.34673e-026   
     length 0.507628   
     axis 2.1355e-014 -90 -90   XYZ
    dof rx rz
    limits (-90.0 90.0)
           (-45.0 45.0)
  end
  begin
     id 29
     name rfingers
     direction -1 -4.48854e-011 -6.69345e-026   
     length 0.409263   
     axis 4.27099e-014 -90 -90   XYZ
    dof rx
    limits (0.0 90.0)
  end
  begin
     id 30
     name rthumb
     direction -0.707107 -6.34913e-011 0.707107   
     length 0.587622   
     axis -90 -45 -2.85299e-015   XYZ
    dof rx rz
    limits (-45.0 45.0)
           (-45.0 45.0)
  end
:hierarchy
  begin
    root lhipjoint rhipjoint lowerback
    lhipjoint lfemur
    lfemur ltibia
    ltibia lfoot
    lfoot ltoes
    rhipjoint rfemur
    rfemur rtibia
    rtibia rfoot
    rfoot rtoes
    lowerback upperback
    upperback thorax
    thorax lowerneck lclavicle rclavicle
    lowerneck upperneck
    upperneck head
    lclavicle lhumerus
    lhumerus lradius
    lradius lwrist
    lwrist lhand lthumb
    lhand lfingers
    rclavicle rhumerus
    rhumerus rradius
    rradius rwrist
    rwrist rhand rthumb
    rhand rfingers
  end

#!OML:ASF E:\motion texture\Top Level 1\Subject 1\Session 1\male.ASF
:FULLY-SPECIFIED
:DEGREES
1
root 33.5359 17.5776 6.59193 -159.31 -86.3221 165.302
lowerback 0.698111 -0.359087 -1.02642
upperback -0.210741 -0.489844 2.15417
thorax -0.579887 -0.243334 2.79089
lowerneck -8.9159 -3.38591 -4.83206
upperneck 10.0418 -4.57961 5.39996
head 4.70637 -2.12843 2.1437
rclavicle 1.63997e-014 2.38542e-015
rhumerus 3.96567 21.4991 -72.0217
rradius 66.7999
rwrist 2.80234
rhand -13.54 -15.9483
rfingers 7.12502
rthumb 12.5726 -45.55
lclavicle 1.63997e-014 2.38542e-015
lhumerus -0.323354 5.19755 94.1719
lradius 58.3571
lwrist 43.9448
lhand -17.1466 27.2711
lfingers 7.12502
lthumb 9.09386 57.0551
rfemur -35.4347 -8.09122 16.7156
rtibia 27.7195
rfoot -3.23661 -16.7349
rtoes 4.16671
lfemur -4.02796 -3.04522 -24.5669
ltibia 15.606
lfoot -12.1989 7.77271
ltoes -13.3937
2
root 33.4447 17.5728 6.58166 -173.667 -85.9501 180.29
lowerback 0.859983 -0.113548 -0.241925
upperback -0.492383 -0.153793 2.46246
thorax -0.979276 -0.0762231 2.6642
lowerneck -9.74152 -3.56449 -4.53835
upperneck 10.3474 -4.83545 5.35096
head 4.94427 -2.22967 2.04839
rclavicle 2.38542e-015 -2.46493e-014
rhumerus 3.19297 21.723 -72.2062
rradius 65.9953
rwrist 3.28133
rhand -12.5182 -15.3949
rfingers 7.12502
rthumb 13.5576 -44.9335
lclavicle 2.38542e-015 -2.46493e-014
lhumerus -0.538824 3.5454 94.4058
lradius 57.3256
lwrist 44.3456
lhand -17.4433 28.0022
lfingers 7.12502
lthumb 8.80759 57.7985
rfemur -35.9739 -6.17926 17.4852
rtibia 25.2114
rfoot -3.37516 -17.1693
rtoes 2.40029
lfemur -4.42883 -2.82238 -23.1933
ltibia 15.7093
lfoot -12.5408 8.18976
ltoes -13.031
3
root 33.3214 17.5608 6.57901 -172.131 -85.9606 178.899
lowerback 0.382959 -0.241006 -0.421165
upperback -0.535675 -0.330972 2.59414
thorax -0.745895 -0.165721 2.90113
lowerneck -8.84418 -3.52928 -4.85002
upperneck 9.79293 -4.79943 5.70438
head 4.63755 -2.22183 2.22686
rclavicle -1.25234e-014 -4.77083e-015
rhumerus 2.19585 22.3613 -72.4948
rradius 65.3597
rwrist 3.85605
rhand -11.5473 -14.8918
rfingers 7.12502
rthumb 14.4932 -44.3656
lclavicle -1.25234e-014 -4.77083e-015
lhumerus -1.03257 2.34212 94.628
lradius 56.4673
lwrist 44.4937
lhand -17.4464 29.0732
lfingers 7.12502
lthumb 8.80462 58.8696
rfemur -35.7682 -5.41914 16.9708
rtibia 22.7023
rfoot -3.74724 -17.0105
rtoes 2.17497
lfemur -4.06238 -2.81694 -23.3498
ltibia 15.5786
lfoot -12.9347 8.18364
ltoes -12.7445
4
root 33.1902 17.5469 6.57402 -169.68 -86.0741 176.52
lowerback 0.385639 -0.309307 -0.583464
upperback -0.528549 -0.423098 2.62345
thorax -0.733853 -0.210933 3.02375
lowerneck -9.17158 -3.65007 -4.78277
upperneck 9.75924 -4.96169 5.76022
head 4.69072 -2.28951 2.21647
rclavicle 1.28216e-014 -3.33958e-014
rhumerus 1.0779 22.3866 -72.9282
rradius 64.997
rwrist 4.2222
rhand -11.3942 -14.8313
rfingers 7.12502
rthumb 14.6407 -44.2945
lclavicle 1.28216e-014 -3.33958e-014
lhumerus -1.53592 0.382475 94.7837
lradius 55.9219
lwrist 44.6297
lhand -17.398 29.6274
lfingers 7.12502
lthumb 8.85128 59.4217
rfemur -35.4439 -4.7575 16.3503
rtibia 20.4587
rfoot -4.25622 -16.64
rtoes 1.11448
lfemur -3.59224 -2.84989 -23.5812
ltibia 15.4455
lfoot -13.347 8.11755
ltoes -12.7336
5
root 33.0655 17.5339 6.56796 -169.59 -86.0961 176.591
lowerback 0.230132 -0.349704 -0.616491
upperback -0.505585 -0.479967 2.70937
thorax -0.618925 -0.240914 3.13021
lowerneck -9.34827 -3.74602 -4.77499
upperneck 9.61902 -5.09116 5.87938
head 4.68729 -2.34299 2.24028
rclavicle -4.67144e-015 -1.11319e-014
rhumerus 0.0718708 22.4608 -73.3007
rradius 64.5659
rwrist 4.57316
rhand -10.959 -14.6079
rfingers 7.12502
rthumb 15.06 -44.0401
lclavicle -4.67144e-015 -1.11319e-014
lhumerus -1.95545 -1.501 94.9674
lradius 55.3845
lwrist 44.9151
lhand -17.4065 30.3412
lfingers 7.12502
lthumb 8.84305 60.1359
rfemur -35.269 -3.79202 15.8556
rtibia 18.2487
rfoot -4.61342 -16.5804
rtoes 0.0831795
lfemur -3.25948 -2.83771 -23.5735
ltibia 15.3577
lfoot -13.7586 8.10912
ltoes -12.559
6
root 32.9373 17.5199 6.56123 -168.519 -86.1756 175.634
lowerback 0.0724388 -0.411509 -0.695972
upperback -0.431831 -0.565985 2.77128
thorax -0.448487 -0.286131 3.23766
lowerneck -9.59804 -3.8471 -4.76578
upperneck 9.48155 -5.22374 5.9921
head 4.69702 -2.39686 2.26029
rclavicle 4.17448e-015 -4.05521e-014
rhumerus -0.986551 22.3992 -73.7123
rradius 64.2578
rwrist 4.81068
rhand -10.6648 -14.5101
rfingers 7.12502
rthumb 15.3433 -43.9209
lclavicle 4.17448e-015 -4.05521e-014
lhumerus -2.40923 -3.54237 95.1368
lradius 55.0273
lwrist 45.2095
lhand -17.3621 30.9807
lfingers 7.12502
lthumb 8.88595 60.7736
rfemur -35.0576 -2.92761 15.2798
rtibia 16.2602
rfoot -4.9579 -16.5253
rtoes -0.92353
lfemur -2.86332 -2.83841 -23.6517
ltibia 15.2715
lfoot -14.1857 8.03747
ltoes -12.3721
7
root 32.8081 17.5053 6.55328 -167.607 -86.2745 174.825
lowerback -0.0285741 -0.470556 -0.759144
upperback -0.352596 -0.647875 2.83297
thorax -0.304229 -0.329377 3.3358
lowerneck -9.9518 -3.9571 -4.736
upperneck 9.39439 -5.36584 6.0725
head 4.73875 -2.45417 2.26406
rclavicle -9.44227e-015 -7.95139e-016
rhumerus -2.13966 22.2058 -74.1587
rradius 64.0887
rwrist 4.89163
rhand -10.4901 -14.5612
rfingers 7.12502
rthumb 15.5116 -43.959
lclavicle -9.44227e-015 -7.95139e-016
lhumerus -2.94243 -5.73576 95.3098
lradius 54.8641
lwrist 45.5215
lhand -17.3173 31.5204
lfingers 7.12502
lthumb 8.92913 61.3114
rfemur -34.8985 -2.14513 14.7548
rtibia 14.5913
rfoot -5.29695 -16.487
rtoes -1.97253
lfemur -2.46632 -2.8439 -23.7042
ltibia 15.2179
lfoot -14.622 7.94779
ltoes -12.1606
8
root 32.6786 17.4906 6.54397 -166.751 -86.397 174.059
lowerback -0.0892912 -0.537436 -0.821934
upperback -0.283041 -0.73989 2.90273
thorax -0.191354 -0.377537 3.44229
lowerneck -10.2809 -4.06083 -4.72384
upperneck 9.3152 -5.49747 6.14294
head 4.77844 -2.50795 2.26848
rclavicle 5.76476e-015 -2.3059e-014
rhumerus -3.41667 21.9221 -74.6342
rradius 64.0695
rwrist 4.79124
rhand -10.3542 -14.7147
rfingers 7.12502
rthumb 15.6426 -44.1023
lclavicle 5.76476e-015 -2.3059e-014
lhumerus -3.5913 -8.00746 95.5073
lradius 54.8954
lwrist 45.8118
lhand -17.2643 31.9811
lfingers 7.12502
lthumb 8.98028 61.77
rfemur -34.8145 -1.53034 14.3237
rtibia 13.3145
rfoot -5.61541 -16.411
rtoes -3.02834
lfemur -2.07373 -2.85276 -23.7352
ltibia 15.205
lfoot -15.0535 7.83536
ltoes -11.9638
9
root 32.5483 17.4758 6.53354 -165.945 -86.527 173.331
lowerback -0.0861332 -0.613089 -0.89017
upperback -0.25393 -0.842724 2.98781
thorax -0.154275 -0.430159 3.56861
lowerneck -10.5277 -4.15069 -4.74391
upperneck 9.24379 -5.60718 6.1945
head 4.80586 -2.55477 2.27511
rclavicle 2.88238e-015 7.15625e-015
rhumerus -4.85586 21.5848 -75.1393
rradius 64.2091
rwrist 4.50953
rhand -10.2738 -15.0273
rfingers 7.12502
rthumb 15.7199 -44.4088
lclavicle 2.88238e-015 7.15625e-015
lhumerus -4.4114 -10.2893 95.7661
lradius 55.1202
lwrist 46.0411
lhand -17.2052 32.3338
lfingers 7.12502
lthumb 9.03735 62.1202
rfemur -34.8242 -1.12417 14.022
rtibia 12.4887
rfoot -5.93498 -16.2146
rtoes -3.96909
lfemur -1.68843 -2.86124 -23.7504
ltibia 15.2357
lfoot -15.4825 7.71708
ltoes -11.7866
10
root 32.4173 17.4609 6.52199 -165.103 -86.6619 172.556
lowerback 0.000965864 -0.695638 -0.974153
upperback -0.289052 -0.953319 3.0899
thorax -0.228488 -0.484853 3.72326
lowerneck -10.6443 -4.22452 -4.79453
upperneck 9.17623 -5.69295 6.21995
head 4.8115 -2.59501 2.2826
rclavicle -2.06736e-014 -7.15625e-015
rhumerus -6.50056 21.2103 -75.6606
rradius 64.5248
rwrist 4.04221
rhand -10.1988 -15.4573
rfingers 7.12502
rthumb 15.7922 -44.8331
lclavicle -2.06736e-014 -7.15625e-015
lhumerus -5.44114 -12.5218 96.1296
lradius 55.5285
lwrist 46.1549
lhand -16.5008 32.2061
lfingers 7.12502
lthumb 9.717 61.962
rfemur -34.9314 -0.936006 13.8578
rtibia 12.1301
rfoot -6.21957 -15.8503
rtoes -4.79044
lfemur -1.31631 -2.87192 -23.7559
ltibia 15.3116
lfoot -15.8921 7.5915
ltoes -11.6762
11
root 32.2854 17.4461 6.50934 -164.131 -86.7908 171.646
lowerback 0.079959 -0.782133 -1.05934
upperback -0.315384 -1.0695 3.19066
thorax -0.288019 -0.542516 3.87745
lowerneck -10.7239 -4.28375 -4.87395
upperneck 9.08337 -5.75618 6.25935
head 4.8032 -2.62528 2.30161
rclavicle -1.0138e-014 1.59028e-015
rhumerus -8.19541 20.7533 -76.1686
rradius 64.9733
rwrist 3.45056
rhand -10.1264 -15.9704
rfingers 7.12502
rthumb 15.8619 -45.3407
lclavicle -1.0138e-014 1.59028e-015
lhumerus -6.54675 -14.6847 96.5658
lradius 56.0924
lwrist 46.1379
lhand -15.7228 31.8599
lfingers 7.12502
lthumb 10.4676 61.5793
rfemur -35.1343 -0.935134 13.8171
rtibia 12.2196
rfoot -6.42143 -15.2966
rtoes -5.38787
lfemur -0.963179 -2.88553 -23.7594
ltibia 15.4351
lfoot -16.2939 7.45714
ltoes -11.6202
12
root 32.1523 17.4315 6.49551 -162.999 -86.915 170.568
lowerback 0.166321 -0.874527 -1.14309
upperback -0.337687 -1.19364 3.28704
thorax -0.346303 -0.604128 4.02682
lowerneck -10.7513 -4.33583 -4.91176
upperneck 8.94719 -5.80912 6.24404
head 4.76943 -2.65365 2.29892
rclavicle 7.15625e-015 2.38542e-015
rhumerus -9.93065 20.2325 -76.6584
rradius 65.5364
rwrist 2.78731
rhand -10.0786 -16.5721
rfingers 7.12502
rthumb 15.908 -45.9388
lclavicle 7.15625e-015 2.38542e-015
lhumerus -7.73313 -16.7273 97.0818
lradius 56.7949
lwrist 45.9719
lhand -15.2371 31.5819
lfingers 7.12502
lthumb 10.9361 61.2771
rfemur -35.3956 -1.03665 13.8595
rtibia 12.6861
rfoot -6.49369 -14.6099
rtoes -5.67333
lfemur -0.621145 -2.91305 -23.7648
ltibia 15.5996
lfoot -16.6815 7.31501
ltoes -11.6194
